<svg width="38" height="30" viewBox="0 0 38 30" fill="none" xmlns="http://www.w3.org/2000/svg">
<path d="M10.969 13.0208L15.9527 2.70833L10.1553 0L2.62889 14.7917C1.30668 17.5 0.594727 19.4792 0.594727 21.6667C0.594727 26.4583 4.35794 30 8.93481 30C13.9185 30 17.4783 26.0417 17.4783 21.3542C17.4783 17.1875 14.9356 13.8542 10.969 13.0208ZM30.8021 13.0208L35.7858 2.70833L29.9884 0L22.462 14.7917C21.1398 17.5 20.4279 19.4792 20.4279 21.6667C20.4279 26.4583 24.1911 30 28.7679 30C33.7517 30 37.3115 26.0417 37.3115 21.3542C37.3115 17.1875 34.7687 13.8542 30.8021 13.0208Z" fill="#FFCF31"/>
</svg>
